PathFileType	4	(X/Y/Z)	/tmp/tmp3fi8u4yx//results/MarkerData/Run_5.trc
DataRate	CameraRate	NumFrames	NumMarkers	Units	OrigDataRate	OrigDataStartFrame	OrigNumFrames
100	100	10	41	m	100	471	539
Frame#	Time	C7			CLAV			LACR			LASI			LCAL			LFAradius			LFAsuperior			LFAulna			LLEL			LMEL			LPSI			LTB1			LTB2			LTB3			LTH1			LTH2			LTH3			LTOE			LUA1			LUA2			LUA3			RACR			RASI			RCAL			RFAradius			RFAsuperior			RFAulna			RLEL			RMEL			RMT5			RPSI			RTB1			RTB2			RTB3			RTH1			RTH2			RTH3			RTOE			RUA1			RUA2			RUA3		
		X1	Y1	Z1	X2	Y2	Z2	X3	Y3	Z3	X4	Y4	Z4	X5	Y5	Z5	X6	Y6	Z6	X7	Y7	Z7	X8	Y8	Z8	X9	Y9	Z9	X10	Y10	Z10	X11	Y11	Z11	X12	Y12	Z12	X13	Y13	Z13	X14	Y14	Z14	X15	Y15	Z15	X16	Y16	Z16	X17	Y17	Z17	X18	Y18	Z18	X19	Y19	Z19	X20	Y20	Z20	X21	Y21	Z21	X22	Y22	Z22	X23	Y23	Z23	X24	Y24	Z24	X25	Y25	Z25	X26	Y26	Z26	X27	Y27	Z27	X28	Y28	Z28	X29	Y29	Z29	X30	Y30	Z30	X31	Y31	Z31	X32	Y32	Z32	X33	Y33	Z33	X34	Y34	Z34	X35	Y35	Z35	X36	Y36	Z36	X37	Y37	Z37	X38	Y38	Z38	X39	Y39	Z39	X40	Y40	Z40	X41	Y41	Z41

472	4.79	1.11876	1.51661	-0.382813	1.23409	1.41847	-0.367356	1.16038	1.5041	-0.556947	1.16393	0.956064	-0.529363	0.852437	0.508919	-0.452138	1.11334	1.13465	-0.615069	0.98602	1.23175	-0.687765	1.06943	1.08385	-0.643337	0.929064	1.30223	-0.691478	0.894645	1.29041	-0.607087	0.993077	1.02293	-0.463965	1.15036	0.433262	-0.480321	1.08469	0.454015	-0.524419	1.01113	0.422463	-0.469253	1.11014	0.811155	-0.59061	1.24022	0.734963	-0.569265	1.23569	0.605941	-0.568804	0.89912	0.275171	-0.458303	1.06282	1.43555	-0.633961	0.97808	1.41722	-0.60453	0.975528	1.35109	-0.667056	1.19615	1.47047	-0.220681	1.15073	0.968524	-0.275525	0.7494	0.141768	-0.383533	1.31351	1.23765	-0.192331	1.18693	1.21319	-0.0896368	1.33144	1.18025	-0.153915	1.10297	1.19421	-0.0589874	1.06291	1.16364	-0.138388	0.96187	0.0474281	-0.317929	0.989167	1.02881	-0.372094	1.03154	0.306157	-0.344538	0.936206	0.239924	-0.308853	0.913156	0.180783	-0.378185	1.09312	0.798937	-0.220768	1.12537	0.699924	-0.227638	1.06117	0.562702	-0.259715	0.973398	0.0673758	-0.396634	1.1638	1.34198	-0.130842	1.09435	1.32338	-0.124865	1.11978	1.26472	-0.0946358
473	4.8	1.11716	1.524	-0.382969	1.23367	1.42762	-0.371261	1.15418	1.51256	-0.557362	1.16669	0.964047	-0.528816	0.872944	0.478735	-0.447436	1.09729	1.15338	-0.615504	0.969294	1.2522	-0.684646	1.05223	1.10294	-0.641596	0.913161	1.32192	-0.686638	0.880625	1.31063	-0.601538	0.995918	1.0304	-0.46247	1.17933	0.438101	-0.48197	1.11027	0.453645	-0.523525	1.04139	0.411768	-0.468815	1.11661	0.823263	-0.592292	1.24835	0.753319	-0.568543	1.25066	0.624006	-0.567875	0.949952	0.253059	-0.461168	1.05272	1.45045	-0.631477	0.969946	1.43376	-0.599805	0.962022	1.36914	-0.663807	1.19929	1.48039	-0.224263	1.15308	0.97039	-0.274463	0.706848	0.156285	-0.381328	1.31731	1.25966	-0.204877	1.19833	1.22527	-0.0966311	1.34073	1.20286	-0.168828	1.11691	1.20042	-0.0623999	1.07456	1.17023	-0.1412	0.911314	0.047631	-0.318531	0.992417	1.03464	-0.370746	0.992353	0.310282	-0.342125	0.894337	0.247389	-0.30721	0.87019	0.187424	-0.376301	1.08615	0.801804	-0.221556	1.11063	0.700088	-0.228697	1.03494	0.566879	-0.259251	0.924495	0.066487	-0.397016	1.17206	1.35062	-0.134427	1.10293	1.33084	-0.126661	1.1304	1.27279	-0.0973336
474	4.81	1.11516	1.5315	-0.383498	1.23321	1.43754	-0.375101	1.14881	1.52131	-0.557698	1.17121	0.972446	-0.528997	0.896478	0.446994	-0.444042	1.08321	1.17238	-0.615627	0.953821	1.27272	-0.680789	1.03701	1.1223	-0.639493	0.898591	1.34235	-0.680581	0.869122	1.3313	-0.594355	1.00047	1.03823	-0.461606	1.20649	0.442446	-0.48238	1.13512	0.451557	-0.522458	1.07211	0.400573	-0.468089	1.12314	0.83579	-0.593826	1.25549	0.771111	-0.567827	1.26337	0.641617	-0.566968	1.00185	0.23323	-0.462018	1.04434	1.46569	-0.628919	0.963451	1.45074	-0.594461	0.94993	1.38808	-0.659564	1.20221	1.49098	-0.228278	1.15624	0.973468	-0.273573	0.66757	0.173255	-0.379432	1.3192	1.28132	-0.216822	1.20866	1.23845	-0.103071	1.3477	1.22551	-0.183215	1.13023	1.20846	-0.0652912	1.0849	1.17838	-0.143158	0.861031	0.0479567	-0.319079	0.995957	1.04041	-0.369882	0.954449	0.317387	-0.338981	0.854197	0.257851	-0.305106	0.829545	0.196414	-0.373954	1.08102	0.80596	-0.222599	1.0981	0.702609	-0.230358	1.01062	0.573895	-0.257878	0.876115	0.065968	-0.39733	1.18016	1.36026	-0.138023	1.11149	1.3396	-0.127799	1.14091	1.28214	-0.0998354
475	4.82	1.11297	1.53898	-0.384383	1.23269	1.44764	-0.378808	1.1442	1.5301	-0.558077	1.17701	0.980708	-0.529602	0.923318	0.414391	-0.44215	1.07113	1.19115	-0.615752	0.939421	1.29268	-0.676271	1.02385	1.14153	-0.637536	0.885382	1.36295	-0.673383	0.860135	1.35191	-0.585663	1.0063	1.04591	-0.461234	1.23209	0.445855	-0.481477	1.15978	0.447362	-0.521298	1.10348	0.388959	-0.466936	1.12981	0.848148	-0.594914	1.26172	0.788015	-0.567175	1.27409	0.658373	-0.566257	1.05445	0.215638	-0.460435	1.0375	1.48089	-0.626622	0.958608	1.46746	-0.5885	0.939485	1.40732	-0.654435	1.20445	1.50182	-0.232397	1.16009	0.977602	-0.272865	0.632144	0.192068	-0.377423	1.31949	1.30199	-0.227998	1.21772	1.25226	-0.108751	1.35259	1.24749	-0.196751	1.14274	1.21788	-0.0675849	1.0942	1.18775	-0.144319	0.811642	0.0483347	-0.319141	0.99966	1.04589	-0.369325	0.918234	0.327357	-0.335481	0.816184	0.270939	-0.302503	0.791856	0.207467	-0.370907	1.07749	0.810196	-0.22393	1.08768	0.706504	-0.232292	0.988753	0.583018	-0.255967	0.82867	0.0660353	-0.397153	1.18782	1.37067	-0.141538	1.11997	1.34951	-0.127707	1.15131	1.29231	-0.102094
476	4.83	1.11085	1.54626	-0.385554	1.23204	1.4573	-0.382328	1.14032	1.53862	-0.558496	1.18305	0.988445	-0.530199	0.953307	0.381288	-0.44165	1.06092	1.20928	-0.616123	0.926233	1.31188	-0.67119	1.0127	1.16019	-0.636261	0.873655	1.38315	-0.665307	0.853307	1.3718	-0.575981	1.0124	1.05306	-0.46093	1.25658	0.448211	-0.479739	1.1847	0.44129	-0.520151	1.13556	0.377064	-0.465378	1.13693	0.860186	-0.595276	1.26708	0.803517	-0.566521	1.28285	0.673613	-0.565674	1.10782	0.200184	-0.456247	1.03186	1.49562	-0.62472	0.95522	1.48319	-0.58208	0.930771	1.42602	-0.648633	1.20584	1.51252	-0.236551	1.1645	0.982349	-0.272301	0.601386	0.21243	-0.374638	1.31852	1.32117	-0.238365	1.2256	1.26626	-0.113796	1.35574	1.26813	-0.2093	1.15446	1.22819	-0.0693508	1.10247	1.19794	-0.144485	0.76376	0.0489281	-0.318345	1.00354	1.05129	-0.368714	0.884389	0.340169	-0.332121	0.780979	0.286258	-0.299463	0.757872	0.220193	-0.367028	1.07491	0.814085	-0.225373	1.07834	0.711012	-0.234258	0.969084	0.593757	-0.254476	0.782818	0.0667877	-0.396021	1.19485	1.38169	-0.144952	1.12851	1.36043	-0.126437	1.16149	1.30304	-0.103978
477	4.84	1.10893	1.55304	-0.386868	1.23125	1.46596	-0.385612	1.13715	1.5464	-0.558819	1.18836	0.995553	-0.530413	0.986163	0.347809	-0.441989	1.05239	1.22632	-0.616882	0.914594	1.33023	-0.665797	1.0035	1.17774	-0.636013	0.863594	1.40231	-0.656778	0.848289	1.39024	-0.566059	1.01777	1.0596	-0.460246	1.28009	0.449651	-0.477689	1.20992	0.433904	-0.519047	1.1682	0.365085	-0.463582	1.14439	0.871788	-0.594797	1.27167	0.816923	-0.565594	1.28946	0.686383	-0.564751	1.16198	0.187089	-0.450054	1.02711	1.5093	-0.622994	0.952992	1.49737	-0.575452	0.923695	1.44333	-0.642365	1.20659	1.52279	-0.240869	1.16926	0.987168	-0.271868	0.57624	0.234412	-0.370644	1.31662	1.33851	-0.247857	1.23255	1.27997	-0.118383	1.35746	1.2867	-0.220902	1.16546	1.239	-0.0706601	1.10946	1.20856	-0.143321	0.717316	0.0503401	-0.316727	1.00761	1.05684	-0.367729	0.85405	0.355554	-0.329504	0.749783	0.303288	-0.296281	0.728203	0.234219	-0.362553	1.07263	0.817963	-0.226475	1.06929	0.715895	-0.236242	0.951237	0.605964	-0.254418	0.738903	0.0684741	-0.393784	1.20129	1.39313	-0.148215	1.13725	1.37198	-0.124781	1.17126	1.31422	-0.105379
478	4.85	1.10725	1.55893	-0.388145	1.23043	1.47329	-0.388644	1.13465	1.55295	-0.558911	1.19257	1.00213	-0.530153	1.02173	0.314098	-0.442164	1.04548	1.24175	-0.618112	0.90487	1.34742	-0.660492	0.99624	1.19359	-0.636874	0.855344	1.41968	-0.648276	0.844877	1.40634	-0.556654	1.02205	1.06562	-0.459055	1.30229	0.450308	-0.475802	1.23499	0.42573	-0.517972	1.20103	0.353218	-0.46176	1.15135	0.88243	-0.593654	1.27562	0.827586	-0.564162	1.29365	0.695842	-0.562865	1.21659	0.176818	-0.443216	1.02323	1.52122	-0.621024	0.95173	1.50953	-0.568852	0.918076	1.45861	-0.635822	1.20701	1.53238	-0.245393	1.17397	0.991579	-0.271544	0.556892	0.258166	-0.36555	1.31411	1.35374	-0.256304	1.23875	1.29283	-0.122521	1.35795	1.30243	-0.231654	1.17558	1.24995	-0.0714708	1.11491	1.21917	-0.140673	0.67155	0.0538049	-0.315006	1.0118	1.06249	-0.366257	0.82836	0.372538	-0.328252	0.723797	0.321148	-0.293476	0.702727	0.249253	-0.358207	1.07041	0.822312	-0.226797	1.06066	0.721213	-0.238336	0.935378	0.619355	-0.256071	0.696477	0.0720438	-0.39096	1.2073	1.40463	-0.151251	1.14601	1.38351	-0.123778	1.18032	1.3256	-0.106304
479	4.86	1.10582	1.56368	-0.389256	1.22978	1.47926	-0.391433	1.13275	1.558	-0.558805	1.19593	1.00824	-0.529648	1.05998	0.280576	-0.441009	1.04033	1.2551	-0.619903	0.897337	1.36275	-0.655741	0.991023	1.2072	-0.638782	0.848929	1.43442	-0.640275	0.842882	1.41921	-0.548389	1.02545	1.07116	-0.457602	1.32263	0.450121	-0.4746	1.25909	0.41702	-0.516945	1.23362	0.341606	-0.460068	1.15646	0.891069	-0.592301	1.27887	0.835074	-0.562444	1.2953	0.701669	-0.559772	1.27102	0.169637	-0.43724	1.02035	1.53081	-0.618614	0.951362	1.51933	-0.562494	0.913733	1.47152	-0.629322	1.20731	1.54095	-0.249885	1.17814	0.995255	-0.271275	0.541767	0.283682	-0.359826	1.31138	1.36649	-0.263463	1.24425	1.30416	-0.126033	1.35724	1.3146	-0.241522	1.18446	1.26056	-0.0716893	1.11884	1.22938	-0.136828	0.626118	0.0612273	-0.314436	1.0158	1.0679	-0.364383	0.807641	0.389404	-0.328766	0.703243	0.338712	-0.291572	0.680231	0.26522	-0.354943	1.06868	0.827116	-0.226323	1.05335	0.726811	-0.240546	0.922374	0.632875	-0.258642	0.654689	0.0794554	-0.38883	1.2129	1.41564	-0.154009	1.15399	1.39443	-0.123979	1.18828	1.33676	-0.106838
480	4.87	1.10467	1.5672	-0.390199	1.22942	1.48402	-0.39393	1.13137	1.56157	-0.55878	1.19863	1.0137	-0.529199	1.1007	0.247988	-0.437739	1.03721	1.26604	-0.622374	0.892133	1.37523	-0.651986	0.988064	1.21823	-0.641669	0.844238	1.44568	-0.633279	0.84201	1.42805	-0.54174	1.02821	1.07604	-0.456214	1.34059	0.448851	-0.474426	1.28145	0.407736	-0.515962	1.26549	0.330334	-0.458519	1.15862	0.89649	-0.591244	1.28088	0.839157	-0.561216	1.29457	0.704148	-0.55597	1.32447	0.165341	-0.433095	1.0185	1.5378	-0.616104	0.951741	1.52644	-0.55667	0.910521	1.48193	-0.623415	1.20763	1.54817	-0.253925	1.18132	0.998082	-0.27102	0.527733	0.310786	-0.35376	1.30888	1.37624	-0.269123	1.2489	1.31324	-0.128699	1.35535	1.32271	-0.250254	1.19155	1.27019	-0.0713204	1.12137	1.23883	-0.13246	0.582263	0.0746219	-0.316163	1.01922	1.07262	-0.362317	0.790994	0.404397	-0.330966	0.686887	0.355229	-0.290789	0.658879	0.282442	-0.353413	1.06818	0.831715	-0.225563	1.04844	0.732024	-0.242887	0.913462	0.644565	-0.260844	0.613384	0.0931076	-0.388949	1.21781	1.42548	-0.156425	1.1602	1.40434	-0.125112	1.19471	1.34713	-0.107026
481	4.88	1.1039	1.56963	-0.391089	1.22932	1.48773	-0.395968	1.1304	1.56396	-0.55926	1.20051	1.01816	-0.528918	1.14326	0.217234	-0.43242	1.03639	1.27443	-0.6256	0.889246	1.38393	-0.649595	0.987603	1.22653	-0.645486	0.841084	1.45284	-0.627843	0.841926	1.43242	-0.53706	1.03014	1.07994	-0.455004	1.35572	0.44625	-0.475034	1.30162	0.397684	-0.514862	1.29613	0.319463	-0.456929	1.15777	0.897992	-0.590741	1.28093	0.839759	-0.561293	1.29187	0.703896	-0.552461	1.37594	0.163548	-0.430882	1.01744	1.54219	-0.614219	0.952468	1.53063	-0.55184	0.908295	1.48954	-0.618799	1.20812	1.5538	-0.257158	1.18342	1.00018	-0.270822	0.511976	0.339324	-0.347224	1.30695	1.38238	-0.273276	1.25239	1.31956	-0.13042	1.35247	1.32662	-0.257423	1.19635	1.27819	-0.0705209	1.1225	1.24733	-0.128288	0.542412	0.0949767	-0.320547	1.02164	1.07638	-0.360316	0.776923	0.416688	-0.334227	0.672724	0.370889	-0.290871	0.637382	0.301519	-0.353532	1.06926	0.835197	-0.225282	1.04661	0.735874	-0.245693	0.909643	0.652311	-0.261983	0.573744	0.114489	-0.392226	1.22154	1.43357	-0.158354	1.16415	1.41295	-0.126389	1.19926	1.35606	-0.106848
